<mxfile host="app.diagrams.net" modified="2024-10-29T00:57:04.616Z" agent="Mozilla/5.0 (Windows NT 10.0; Win64; x64) AppleWebKit/537.36 (KHTML, like Gecko) Chrome/130.0.0.0 Safari/537.36 Edg/130.0.0.0" version="23.1.5" etag="RDoyOZBMpAy8xKrLed6K" type="github">
  <diagram name="Страница — 1" id="d7dE3nXRnZuCts239t4J">
    <mxGraphModel>
      <root>
        <mxCell id="0" />
        <mxCell id="1" parent="0" />
      </root>
    </mxGraphModel>
  </diagram>
</mxfile>
